<?xml version="1.0" encoding="iso-8859-1"?>
<!-- Generator: Adobe Illustrator 19.0.0, SVG Export Plug-In . SVG Version: 6.00 Build 0)  -->
<svg version="1.1" id="Layer_1" xmlns="http://www.w3.org/2000/svg" xmlns:xlink="http://www.w3.org/1999/xlink" x="0px" y="0px"
	 viewBox="0 0 511.986 511.986" style="enable-background:new 0 0 511.986 511.986;" xml:space="preserve">
<g>
	<g>
		<path d="M209.297,5.229C93.887,5.229,0,99.121,0,214.526C0,329.93,93.887,423.822,209.297,423.822
			c115.409,0,209.297-93.892,209.297-209.297C418.593,99.121,324.706,5.229,209.297,5.229z M209.297,402.893
			c-103.862,0-188.367-84.5-188.367-188.367c0-103.866,84.505-188.367,188.367-188.367c103.861,0,188.367,84.501,188.367,188.367
			C397.664,318.392,313.158,402.893,209.297,402.893z"/>
	</g>
</g>
<g>
	<g>
		
			<rect x="431.726" y="348.717" transform="matrix(0.7071 -0.7071 0.7071 0.7071 -179.4635 440.6595)" width="20.927" height="176.488"/>
	</g>
</g>
<g>
</g>
<g>
</g>
<g>
</g>
<g>
</g>
<g>
</g>
<g>
</g>
<g>
</g>
<g>
</g>
<g>
</g>
<g>
</g>
<g>
</g>
<g>
</g>
<g>
</g>
<g>
</g>
<g>
</g>
</svg>
